<?xml version="1.0" encoding="utf-8"?>
<!-- Generator: Adobe Illustrator 25.4.1, SVG Export Plug-In . SVG Version: 6.00 Build 0)  -->
<svg version="1.1" id="Layer_1" xmlns="http://www.w3.org/2000/svg" xmlns:xlink="http://www.w3.org/1999/xlink" x="0px" y="0px"
	 viewBox="0 0 1280 1280" style="enable-background:new 0 0 1280 1280;" xml:space="preserve">
<style type="text/css">
	.st0{fill:#FFFFFF;stroke:#000000;stroke-width:20;stroke-miterlimit:10;}
	.st1{fill:none;stroke:#000000;stroke-width:20;stroke-miterlimit:10;}
</style>
<g>
	<ellipse class="st0" cx="640" cy="640" rx="494.49" ry="479.72"/>
	<path class="st1" d="M145.51,640c23.68-26.54,310.94-340.15,604.7-258.96c35.67,9.86,76.33,26.89,118.87,56.6"/>
	<line class="st1" x1="1120.6" y1="753.34" x2="696.74" y2="785.85"/>
	<path class="st1" d="M969.17,765.27c-108.99,6.75-197.32-71.13-203.87-159.7c-4.91-66.33,36.43-133.5,103.77-167.92"/>
	<path class="st1" d="M696.74,785.85c-111.17,0.69-207.09-101.42-219.99-210.99c-9.67-82.05,27.98-161.91,94.55-199.6"/>
	<path class="st1" d="M781.06,779.5c-108.67-21.79-179.38-134.82-167.38-237.94c8.99-77.23,63.66-142.91,137.11-164.07"/>
</g>
<rect x="1894.55" y="358.4" style="fill:none;" width="411.32" height="60.38"/>
</svg>
