<?xml version="1.0" encoding="utf-8"?>
<!-- Generator: Adobe Illustrator 25.4.1, SVG Export Plug-In . SVG Version: 6.00 Build 0)  -->
<svg version="1.1" id="Layer_1" xmlns="http://www.w3.org/2000/svg" xmlns:xlink="http://www.w3.org/1999/xlink" x="0px" y="0px"
	 viewBox="0 0 1280 1280" style="enable-background:new 0 0 1280 1280;" xml:space="preserve">
<style type="text/css">
	.st0{fill:#FFFFFF;stroke:#000000;stroke-width:20;stroke-miterlimit:10;}
	.st1{fill:none;stroke:#000000;stroke-width:20;stroke-miterlimit:10;}
	.st2{fill:none;}
</style>
<g>
	<ellipse class="st0" cx="640" cy="640" rx="494.49" ry="479.72"/>
	<path class="st1" d="M145.51,640c23.68-26.54,310.94-340.15,604.7-258.96c35.67,9.86,76.33,26.89,118.87,56.6"/>
	<line class="st1" x1="1120.6" y1="753.34" x2="696.74" y2="785.85"/>
	<path class="st1" d="M969.17,765.27c-108.99,6.75-197.32-71.13-203.87-159.7c-4.91-66.33,36.43-133.5,103.77-167.92"/>
	<path class="st1" d="M696.74,785.85c-111.17,0.69-207.09-101.42-219.99-210.99c-9.67-82.05,27.98-161.91,94.55-199.6"/>
	<path class="st1" d="M781.06,779.5c-108.67-21.79-179.38-134.82-167.38-237.94c8.99-77.23,63.66-142.91,137.11-164.07"/>
</g>
<rect x="1894.55" y="358.4" class="st2" width="411.32" height="60.38"/>
<g>
	<g>
		<path d="M128.84,431.74c-0.39-0.18-0.79-0.12-1.22,0.17c-0.42,0.29-1.07,1.25-1.92,2.89c-0.33-0.15-0.67-0.3-1-0.45
			c4.01-9.22,8.22-18.24,12.61-27.08c0.32,0.17,0.65,0.33,0.97,0.5c-0.7,1.68-1.02,2.78-0.96,3.29c0.05,0.51,0.27,0.86,0.65,1.05
			c7.27,3.65,14.54,7.31,21.81,10.96c3.58,1.8,6.16,4.19,7.77,7.15c1.61,2.96,2.44,6.29,2.51,10.03c0.07,3.74-0.52,7.79-1.75,12.18
			c-1.23,4.4-2.82,8.95-4.76,13.71c-1.94,4.76-4.01,9.18-6.23,13.26c-2.22,4.08-4.67,7.49-7.37,10.22c-2.7,2.73-5.66,4.63-8.89,5.67
			c-3.23,1.05-6.75,0.96-10.55-0.3c-7.71-2.57-15.42-5.14-23.14-7.71c-0.4-0.13-0.81-0.03-1.21,0.32c-0.4,0.35-0.96,1.41-1.67,3.21
			c-0.35-0.11-0.69-0.23-1.04-0.34c3.24-9.96,6.68-19.73,10.32-29.3c0.34,0.13,0.68,0.26,1.02,0.39c-0.56,1.81-0.78,2.97-0.68,3.49
			c0.1,0.52,0.35,0.85,0.74,1c7.6,2.88,15.21,5.75,22.81,8.63c3.29,1.24,6.19,0.67,8.7-1.66c2.51-2.33,4.77-6.07,6.86-11.18
			c2.09-5.11,3.06-9.32,2.88-12.71c-0.18-3.39-1.85-5.82-5.06-7.28C143.65,438.48,136.24,435.11,128.84,431.74z"/>
		<path d="M152.57,384.18c-0.37-0.21-0.77-0.2-1.22,0.03c-0.44,0.23-1.15,1.1-2.12,2.61c-0.32-0.18-0.63-0.36-0.95-0.54
			c5.47-9.98,11.19-19.7,17.14-29.16c0.31,0.2,0.61,0.4,0.92,0.59c-0.79,1.37-1.22,2.33-1.31,2.87c-0.09,0.55-0.01,0.9,0.25,1.07
			c0.1,0.07,0.88-0.15,2.33-0.65c1.45-0.49,3.31-1.16,5.56-1.98c2.25-0.82,4.78-1.74,7.57-2.75c2.8-1,5.61-2,8.42-2.98
			c2.82-0.98,5.51-1.9,8.07-2.78c2.56-0.88,4.77-1.61,6.61-2.21c-6.58-4.76-13.16-9.52-19.75-14.29c-0.84-0.61-1.83-0.15-2.98,1.39
			c-0.3-0.21-0.59-0.43-0.89-0.64c4.79-6.87,9.71-13.58,14.75-20.15c0.29,0.23,0.57,0.45,0.86,0.68c-0.95,1.44-1.43,2.4-1.46,2.9
			c-0.03,0.49,0.13,0.87,0.46,1.13c11.22,8.68,22.44,17.36,33.65,26.04c0.34,0.26,0.73,0.33,1.17,0.19
			c0.44-0.13,1.19-0.79,2.25-1.96c0.29,0.23,0.57,0.45,0.86,0.68c-4.79,6.24-9.46,12.63-14.01,19.17c-0.3-0.21-0.59-0.42-0.89-0.64
			c0.67-0.96,1.04-1.65,1.11-2.07c0.07-0.41-0.02-0.71-0.27-0.89c-0.15-0.11-0.41-0.14-0.77-0.09c-0.37,0.05-1.06,0.22-2.09,0.52
			c-1.03,0.3-2.52,0.77-4.48,1.42c-1.96,0.65-4.57,1.51-7.83,2.61c-3.26,1.11-7.31,2.5-12.16,4.25c-4.85,1.76-10.72,3.94-17.62,6.69
			c8.11,5.03,16.23,10.05,24.34,15.08c0.36,0.22,0.76,0.24,1.19,0.06c0.43-0.19,1.12-0.94,2.07-2.26c0.31,0.19,0.62,0.39,0.93,0.58
			c-4.22,6.91-8.31,13.96-12.26,21.17c-0.32-0.18-0.63-0.36-0.95-0.54c0.69-1.5,1.01-2.49,0.96-2.97c-0.05-0.48-0.26-0.82-0.62-1.03
			C177.12,398.29,164.84,391.23,152.57,384.18z"/>
		<path d="M245.15,327.08c0.91-1.27,1.38-2.14,1.41-2.6c0.03-0.46-0.11-0.83-0.44-1.11c-10.74-9.28-21.48-18.55-32.22-27.83
			c-0.32-0.28-0.72-0.35-1.18-0.23c-0.47,0.13-1.3,0.8-2.48,2.02c-0.28-0.24-0.56-0.47-0.83-0.71c5.92-7.08,11.99-13.96,18.2-20.66
			c0.27,0.25,0.53,0.5,0.8,0.75c-1.05,1.32-1.61,2.22-1.68,2.7c-0.07,0.48,0.06,0.87,0.37,1.15c10.41,9.65,20.82,19.3,31.23,28.95
			c0.31,0.29,0.69,0.39,1.14,0.31c0.45-0.08,1.24-0.65,2.38-1.7c0.27,0.25,0.53,0.5,0.8,0.75c-5.68,6.13-11.24,12.43-16.66,18.91
			C245.7,327.56,245.43,327.32,245.15,327.08z"/>
		<path d="M289.73,280.36c0.45-0.58,0.72-0.99,0.82-1.25c0.1-0.25,0.08-0.45-0.04-0.58c-0.08-0.09-0.74-0.34-1.97-0.73
			c-1.24-0.4-2.84-0.93-4.83-1.58c-1.99-0.65-4.27-1.35-6.88-2.09c-2.6-0.73-5.29-1.5-8.07-2.3c-2.78-0.8-5.56-1.55-8.35-2.24
			c-2.79-0.69-5.37-1.32-7.74-1.89c-2.37-0.57-4.41-1.07-6.13-1.51c-1.72-0.44-2.92-0.74-3.6-0.92c-1.16-0.3-1.98-0.43-2.44-0.39
			c-0.46,0.04-0.96,0.28-1.5,0.74c-0.26-0.26-0.52-0.51-0.78-0.77c6.33-6.45,12.8-12.71,19.39-18.79c0.25,0.27,0.49,0.54,0.74,0.81
			c-0.73,0.75-1.16,1.32-1.29,1.69c-0.13,0.37-0.09,0.67,0.11,0.89c0.12,0.13,0.53,0.28,1.21,0.44c0.68,0.16,2.12,0.5,4.32,1.05
			c2.2,0.55,5.38,1.35,9.52,2.46c4.14,1.11,9.74,2.68,16.74,4.84c-1.15-6.99-1.96-12.6-2.54-16.77c-0.58-4.17-0.97-7.39-1.21-9.63
			c-0.24-2.24-0.44-3.75-0.62-4.51c-0.18-0.76-0.34-1.23-0.5-1.42c-0.19-0.24-0.44-0.33-0.73-0.29c-0.3,0.05-0.77,0.29-1.41,0.74
			c-0.23-0.28-0.46-0.57-0.7-0.85c5.77-4.73,11.62-9.32,17.55-13.78c0.22,0.29,0.44,0.58,0.66,0.87c-0.34,0.41-0.59,0.75-0.76,1.03
			c-0.17,0.28-0.19,0.64-0.07,1.08c0.08,0.39,0.21,1.41,0.38,3.04c0.17,1.63,0.4,3.65,0.7,6.03c0.3,2.39,0.64,5.03,1.05,7.93
			c0.41,2.89,0.83,5.84,1.27,8.84c0.44,3,0.9,5.92,1.36,8.76c0.47,2.84,0.91,5.36,1.31,7.56c0.4,2.2,0.77,3.99,1.1,5.38
			c0.33,1.39,0.53,2.14,0.61,2.23c0.35,0.42,0.95,0.27,1.81-0.44c0.25,0.3,0.51,0.61,0.76,0.91c-6.29,5.23-12.48,10.64-18.55,16.22
			C290.22,280.9,289.98,280.63,289.73,280.36z"/>
		<path d="M367.91,202.42c-0.45-0.44-1-0.7-1.66-0.78c-0.66-0.07-1.51,0.2-2.56,0.82c-6.49,3.84-12.91,7.83-19.25,11.96
			c1.56,2.36,3.12,4.73,4.68,7.09c10.77-7.02,21.77-13.62,32.96-19.78c0.56-0.31,0.89-0.68,1.01-1.13c0.12-0.44-0.04-1.21-0.46-2.3
			c0.42-0.23,0.84-0.46,1.27-0.69c2.52,4.56,5.03,9.12,7.55,13.67c-0.41,0.22-0.82,0.44-1.23,0.67c-0.52-0.62-0.96-0.93-1.33-0.94
			c-0.36-0.01-0.82,0.14-1.36,0.44c-17.04,9.38-33.61,19.77-49.6,31.19c-0.21-0.3-0.43-0.59-0.64-0.89
			c1.15-0.97,1.79-1.67,1.92-2.09c0.13-0.43,0.07-0.82-0.17-1.16c-8.22-11.58-16.44-23.15-24.66-34.73
			c-0.25-0.35-0.61-0.52-1.08-0.52c-0.47,0-1.41,0.42-2.81,1.27c-0.21-0.3-0.43-0.59-0.64-0.89c17.47-12.47,35.56-23.83,54.18-34.07
			c0.6-0.33,0.96-0.72,1.1-1.18c0.13-0.45,0.03-1.18-0.33-2.16c0.45-0.25,0.9-0.49,1.35-0.73c2.56,4.64,5.12,9.28,7.68,13.91
			c-0.44,0.24-0.88,0.48-1.31,0.71c-0.65-0.82-1.2-1.3-1.66-1.44c-0.46-0.13-0.98-0.04-1.56,0.28
			c-11.75,6.46-23.28,13.38-34.58,20.75c1.39,2.11,2.79,4.22,4.18,6.33c6.46-4.21,12.99-8.27,19.6-12.18
			c1.07-0.63,1.73-1.25,1.99-1.86c0.26-0.61,0.31-1.22,0.14-1.83c0.43-0.25,0.86-0.5,1.29-0.75c2.41,4.09,4.82,8.19,7.23,12.28
			C368.75,201.93,368.33,202.17,367.91,202.42z"/>
		<path d="M422.49,190.94c0.18,0.39,0.49,0.63,0.92,0.74c0.43,0.1,1.35-0.09,2.75-0.58c0.15,0.33,0.3,0.66,0.45,1
			c-7.3,3.24-14.54,6.65-21.7,10.24c-0.17-0.32-0.33-0.65-0.5-0.98c1.27-0.77,2-1.35,2.19-1.75c0.19-0.4,0.19-0.79,0-1.17
			c-6.39-12.66-12.78-25.33-19.17-37.99c-0.19-0.38-0.52-0.61-0.99-0.68c-0.47-0.08-1.45,0.19-2.94,0.8
			c-0.17-0.33-0.33-0.65-0.5-0.98c13.9-6.96,28.05-13.32,42.42-19.08c8.72-3.49,15.56-4.68,20.37-3.79c4.81,0.89,8.06,3.81,9.8,8.67
			c1.42,3.95,0.96,7.58-1.3,10.9c-2.26,3.33-5.51,6.33-9.77,9.06c6.27,3,12.43,6.11,18.48,9.32c1.26,0.72,2.5,0.86,3.75,0.43
			c0.12,0.34,0.25,0.69,0.37,1.03c-7.6,2.63-15.14,5.44-22.62,8.43c-0.14-0.34-0.28-0.67-0.42-1.01c1.56-0.69,2.15-1.51,1.76-2.47
			c-0.05-0.11-0.5-0.39-1.35-0.84c-0.86-0.45-1.92-0.97-3.18-1.58c-1.27-0.61-2.66-1.24-4.18-1.9c-1.52-0.66-2.99-1.29-4.41-1.89
			c-1.42-0.6-2.67-1.13-3.75-1.6c-1.08-0.47-1.79-0.8-2.13-0.98c-3.62,1.54-7.22,3.11-10.8,4.73
			C418.19,181.66,420.34,186.3,422.49,190.94z M430.89,160.14c3.32-1.35,5.43-2.71,6.31-4.14c0.88-1.42,1.08-2.75,0.59-4
			c-0.49-1.24-1.56-2.09-3.21-2.52c-1.65-0.43-4.18,0.02-7.56,1.39c-6.47,2.63-12.89,5.38-19.26,8.25c1.41,3.04,2.81,6.07,4.22,9.11
			C418.23,165.42,424.54,162.72,430.89,160.14z"/>
		<path d="M482,151.87c-0.05,0.39,0.07,1.03,0.34,1.9c0.18,0.58,1.09,1.02,2.72,1.33c1.63,0.31,3.66,0.46,6.09,0.46
			c2.43,0,5.15-0.18,8.16-0.52c3.01-0.34,6-0.89,8.97-1.63c5.72-1.44,9.8-2.92,12.25-4.57c2.45-1.64,3.46-3.43,3.02-5.38
			c-0.24-1.06-1.6-1.56-4.08-1.47c-2.48,0.09-5.55,0.43-9.19,1.03c-3.65,0.61-7.57,1.28-11.76,2.05c-4.2,0.77-8.19,1.26-12,1.44
			c-3.81,0.19-7.15-0.14-10.02-1c-2.87-0.86-4.77-2.67-5.68-5.44c-0.72-2.19-0.68-4.41,0.13-6.63c0.81-2.22,2.28-4.36,4.41-6.4
			c2.13-2.03,4.92-3.94,8.35-5.7c3.44-1.75,7.41-3.23,11.9-4.38c4.17-1.07,8.11-1.83,11.81-2.3c3.7-0.46,7-0.75,9.9-0.89
			c2.9-0.13,5.33-0.19,7.3-0.19c1.97,0,3.36-0.08,4.19-0.24c0.82-0.16,1.45-0.42,1.89-0.79c0.44-0.36,0.83-0.76,1.17-1.2
			c0.48,0.03,0.95,0.07,1.43,0.1c-2.03,4.68-3.99,9.36-5.88,14.06c-0.52-0.08-1.04-0.16-1.56-0.24c-0.07-0.33-0.14-0.65-0.21-0.98
			c-0.12-0.53-1.02-0.92-2.72-1.15c-1.7-0.23-3.81-0.31-6.33-0.21c-2.52,0.1-5.32,0.35-8.38,0.76c-3.06,0.42-6,0.98-8.81,1.7
			c-5.23,1.33-8.75,2.77-10.57,4.22c-1.83,1.45-2.58,2.68-2.29,3.67c0.29,0.99,1.22,1.53,2.79,1.63c1.57,0.1,3.52-0.04,5.88-0.42
			c2.36-0.38,5.02-0.87,7.99-1.46c2.97-0.59,6.04-1.1,9.22-1.53c3.17-0.43,6.29-0.7,9.36-0.8c3.06-0.1,5.86,0.14,8.38,0.71
			c2.52,0.58,4.66,1.58,6.42,3.01c1.76,1.43,2.88,3.43,3.38,5.99c0.38,1.97,0.23,4-0.43,6.11c-0.67,2.1-2.09,4.15-4.25,6.17
			c-2.16,2.01-5.2,3.89-9.11,5.68c-3.91,1.79-8.89,3.4-14.94,4.92c-4.71,1.18-8.8,2.09-12.29,2.68c-3.49,0.59-6.49,1-9.02,1.2
			c-2.53,0.21-4.54,0.33-6.05,0.34c-1.5,0.02-2.59,0.13-3.26,0.34c-0.44,0.14-0.8,0.38-1.05,0.71c-0.26,0.34-0.52,0.71-0.8,1.11
			c-0.47,0.05-0.94,0.11-1.42,0.17c1.03-6.01,2.15-12.03,3.36-18.05C481.14,151.81,481.57,151.84,482,151.87z"/>
		<path d="M558.79,152.22c1.43-0.35,2.3-0.68,2.6-1c0.3-0.32,0.42-0.69,0.35-1.11c-2.18-13.97-4.37-27.95-6.55-41.92
			c-0.07-0.42-0.31-0.74-0.72-0.95c-0.42-0.21-1.42-0.26-3.02-0.14c-0.06-0.36-0.12-0.72-0.18-1.08c8.56-1.34,17.16-2.48,25.77-3.44
			c0.04,0.36,0.08,0.72,0.13,1.09c-1.57,0.3-2.53,0.61-2.87,0.92c-0.34,0.31-0.49,0.68-0.43,1.1c1.72,14.04,3.43,28.07,5.15,42.11
			c0.05,0.42,0.27,0.75,0.64,0.98c0.38,0.23,1.3,0.32,2.77,0.28c0.04,0.36,0.08,0.72,0.13,1.08c-7.88,0.88-15.75,1.92-23.59,3.15
			C558.91,152.94,558.85,152.58,558.79,152.22z"/>
		<path d="M616.23,146.38c1.46-0.19,2.36-0.43,2.69-0.72c0.34-0.29,0.49-0.64,0.47-1.07c-0.5-11.33-1-22.67-1.5-34
			c-7.08,0.3-14.16,0.73-21.23,1.28c-0.66,0.05-1.14,0.26-1.44,0.62c-0.3,0.36-0.49,1.06-0.56,2.1c-0.49,0.04-0.98,0.08-1.47,0.12
			c-0.48-5.38-0.96-10.76-1.44-16.14c0.51-0.04,1.01-0.09,1.52-0.13c0.26,1.01,0.57,1.67,0.93,1.98c0.36,0.31,0.88,0.43,1.55,0.38
			c20.71-1.63,41.5-2.18,62.27-1.63c0.67,0.02,1.18-0.13,1.53-0.46c0.34-0.32,0.62-1,0.82-2.02c0.51,0.02,1.01,0.03,1.52,0.05
			c-0.19,5.4-0.37,10.79-0.56,16.19c-0.49-0.02-0.98-0.03-1.48-0.05c-0.13-1.04-0.36-1.73-0.68-2.07c-0.32-0.34-0.81-0.52-1.47-0.54
			c-7.09-0.19-14.18-0.25-21.27-0.17c0.12,11.34,0.24,22.69,0.36,34.03c0,0.43,0.18,0.77,0.53,1.04c0.35,0.27,1.26,0.46,2.73,0.57
			c0,0.36,0,0.73,0,1.09c-7.93,0.03-15.86,0.24-23.78,0.62C616.27,147.1,616.25,146.74,616.23,146.38z"/>
		<path d="M744.33,107.84c-0.07,0.36-0.13,0.72-0.2,1.08c-0.66-0.12-1.25-0.05-1.76,0.2c-0.51,0.25-1.02,0.55-1.5,0.9
			c-9.36,6.75-18.41,13.72-27.12,20.9c-0.78,5.87-1.57,11.73-2.35,17.6c-0.06,0.42,0.07,0.79,0.38,1.1
			c0.31,0.32,1.18,0.63,2.62,0.94c-0.05,0.36-0.1,0.72-0.15,1.08c-7.86-1.05-15.75-1.93-23.65-2.64c0.03-0.36,0.07-0.72,0.1-1.09
			c1.47,0.01,2.39-0.1,2.77-0.34c0.37-0.24,0.58-0.57,0.62-0.99c0.53-5.31,1.06-10.63,1.59-15.94c-6.76-9-13.89-17.87-21.37-26.6
			c-1.25-1.46-2.09-2.37-2.49-2.73c-0.4-0.35-0.9-0.55-1.48-0.57c0.02-0.36,0.04-0.73,0.05-1.09c9.24,0.44,18.47,1.09,27.68,1.96
			c-0.04,0.36-0.07,0.72-0.11,1.09c-0.75-0.07-1.47-0.08-2.15-0.02c-0.68,0.06-1.04,0.33-1.09,0.82c-0.02,0.24,0.45,1.02,1.42,2.32
			c0.96,1.31,2.09,2.82,3.37,4.53c1.28,1.71,2.61,3.46,3.98,5.26c1.37,1.79,2.47,3.32,3.3,4.57c0.28-0.27,0.87-0.77,1.78-1.49
			c0.91-0.72,1.94-1.56,3.1-2.52c1.16-0.96,2.41-1.97,3.76-3.02c1.35-1.05,2.57-2.02,3.66-2.92c1.09-0.9,2.02-1.67,2.79-2.33
			c0.77-0.66,1.17-1.05,1.18-1.17c0.07-0.48-0.2-0.82-0.81-1.03c-0.61-0.21-1.2-0.35-1.78-0.43c0.05-0.36,0.1-0.72,0.15-1.08
			C728.55,105.24,736.45,106.46,744.33,107.84z"/>
		<path d="M793.66,149.25c-0.26,0.31-0.51,0.9-0.77,1.77c-0.17,0.58,0.34,1.44,1.54,2.57c1.19,1.13,2.81,2.35,4.85,3.65
			c2.04,1.31,4.42,2.62,7.13,3.95c2.72,1.33,5.53,2.48,8.44,3.45c5.6,1.87,9.86,2.82,12.84,2.76c2.97-0.06,4.82-1.01,5.54-2.88
			c0.39-1.02-0.48-2.17-2.61-3.43c-2.14-1.26-4.9-2.63-8.3-4.08c-3.4-1.45-7.07-2.99-11.02-4.6c-3.95-1.61-7.57-3.34-10.87-5.23
			c-3.3-1.89-5.91-3.95-7.83-6.21c-1.92-2.26-2.51-4.79-1.73-7.6c0.62-2.22,1.88-4.06,3.79-5.49c1.91-1.43,4.33-2.43,7.25-2.99
			c2.92-0.56,6.31-0.67,10.17-0.29c3.86,0.37,8.01,1.27,12.42,2.72c4.09,1.34,7.83,2.82,11.2,4.42c3.37,1.6,6.31,3.14,8.82,4.59
			c2.51,1.45,4.59,2.71,6.26,3.78c1.66,1.06,2.88,1.75,3.66,2.06c0.78,0.31,1.46,0.43,2.03,0.36c0.57-0.07,1.12-0.19,1.65-0.37
			c0.38,0.28,0.77,0.57,1.15,0.86c-4.32,2.82-8.58,5.68-12.79,8.59c-0.39-0.35-0.79-0.69-1.18-1.04c0.12-0.31,0.25-0.62,0.37-0.93
			c0.2-0.51-0.34-1.32-1.65-2.43c-1.3-1.11-3.04-2.31-5.21-3.59c-2.18-1.28-4.67-2.57-7.47-3.87c-2.8-1.3-5.59-2.4-8.35-3.31
			c-5.13-1.69-8.89-2.38-11.22-2.14c-2.34,0.23-3.65,0.86-3.96,1.84c-0.31,0.99,0.17,1.94,1.43,2.86c1.26,0.93,2.98,1.86,5.17,2.81
			c2.19,0.95,4.7,1.97,7.52,3.07c2.82,1.1,5.69,2.33,8.6,3.67c2.91,1.35,5.68,2.8,8.32,4.37c2.64,1.56,4.86,3.28,6.66,5.12
			c1.8,1.84,3.05,3.84,3.74,5.99c0.69,2.14,0.52,4.42-0.49,6.84c-0.77,1.85-2.03,3.47-3.77,4.88c-1.73,1.4-4.08,2.35-7.02,2.86
			c-2.94,0.52-6.55,0.45-10.84-0.15c-4.29-0.6-9.37-1.94-15.31-3.92c-4.62-1.54-8.55-2.98-11.8-4.36c-3.25-1.38-6-2.65-8.23-3.83
			c-2.23-1.18-3.99-2.16-5.25-2.95c-1.27-0.79-2.24-1.28-2.92-1.46c-0.45-0.12-0.88-0.11-1.28,0.03c-0.4,0.14-0.83,0.31-1.29,0.51
			c-0.43-0.21-0.85-0.41-1.28-0.62c4.2-4.49,8.48-8.93,12.84-13.32C792.98,148.74,793.32,148.99,793.66,149.25z"/>
		<path d="M921.97,189.93c0.16-0.12,0.32-0.26,0.46-0.42c0.14-0.16,0.29-0.38,0.45-0.64c0.25-0.42,0.01-1.12-0.72-2.1
			c-0.73-0.98-1.81-2.1-3.24-3.37c-1.44-1.26-3.15-2.6-5.13-4c-1.99-1.4-4.16-2.73-6.52-3.97c-2.21-1.17-4.64-2.19-7.28-3.07
			c-2.64-0.87-5.21-1.37-7.69-1.51c-2.48-0.14-4.73,0.21-6.74,1.03c-2.01,0.82-3.51,2.28-4.53,4.36c-1.01,2.08-1.23,4.15-0.68,6.2
			c0.55,2.06,1.6,4,3.13,5.84c1.53,1.84,3.36,3.54,5.51,5.12c2.14,1.57,4.26,2.92,6.37,4.04c0.91,0.48,2.42,1.13,4.51,1.95
			c2.09,0.82,4.24,1.57,6.43,2.23c2.19,0.67,4.19,1.17,6,1.51c1.8,0.33,2.88,0.22,3.22-0.36c0.15-0.26,0.21-0.51,0.16-0.75
			c-0.05-0.24-0.08-0.5-0.09-0.79c0.49,0.04,0.99,0.08,1.48,0.12c1.17,6.21,2.21,12.41,3.14,18.59c-0.52-0.07-1.03-0.13-1.55-0.2
			c0.02-0.34-0.05-0.62-0.24-0.84c-0.19-0.22-0.45-0.43-0.79-0.64c-0.47-0.29-1.55-0.64-3.24-1.04c-1.69-0.4-3.81-1.03-6.38-1.85
			c-2.57-0.82-5.49-1.89-8.78-3.2c-3.3-1.31-6.86-2.99-10.72-5.02c-4.13-2.17-8.03-4.68-11.73-7.56c-3.7-2.87-6.78-5.98-9.26-9.37
			c-2.48-3.39-4.14-6.93-4.98-10.66c-0.84-3.73-0.46-7.46,1.19-11.18c1.66-3.72,4.19-6.52,7.66-8.35c3.46-1.83,7.43-2.86,11.88-3.05
			c4.45-0.19,9.17,0.35,14.13,1.63c4.95,1.28,9.71,3.12,14.23,5.49c4.52,2.38,8.3,4.67,11.34,6.81c3.04,2.15,5.54,4.08,7.5,5.78
			c1.89,1.66,3.32,2.98,4.32,3.96c0.99,0.98,1.78,1.65,2.37,2c0.65,0.39,1.33,0.52,2.02,0.36c0.35,0.32,0.7,0.64,1.06,0.96
			c-5.91,2.28-11.75,4.66-17.53,7.11C922.47,190.71,922.22,190.32,921.97,189.93z"/>
		<path d="M987.78,271.74c-0.28,0.32-0.38,0.7-0.29,1.15c0.09,0.44,0.66,1.21,1.72,2.32c-0.24,0.27-0.49,0.55-0.73,0.82
			c-6.14-5.47-12.39-10.77-18.75-15.9c0.23-0.28,0.46-0.57,0.69-0.85c1.25,0.85,2.1,1.29,2.55,1.3c0.45,0.01,0.81-0.14,1.08-0.47
			c3.57-4.36,7.14-8.73,10.71-13.09c-8.29-6.77-16.76-13.26-25.39-19.46c-3.31,4.57-6.61,9.13-9.92,13.7
			c-0.25,0.35-0.31,0.73-0.18,1.16c0.13,0.43,0.76,1.13,1.91,2.11c-0.22,0.29-0.43,0.59-0.65,0.88
			c-6.56-4.78-13.23-9.39-19.98-13.82c0.2-0.3,0.4-0.61,0.61-0.91c1.31,0.72,2.2,1.07,2.64,1.03c0.45-0.03,0.79-0.22,1.03-0.58
			c7.93-11.78,15.86-23.55,23.79-35.33c0.24-0.35,0.27-0.75,0.11-1.19c-0.17-0.44-0.9-1.16-2.19-2.15c0.2-0.3,0.4-0.61,0.61-0.91
			c7.38,4.84,14.66,9.87,21.83,15.1c-0.22,0.29-0.43,0.59-0.65,0.88c-1.39-0.86-2.33-1.29-2.8-1.3c-0.48,0-0.84,0.17-1.09,0.51
			c-2.84,3.92-5.68,7.85-8.52,11.77c8.81,6.33,17.45,12.95,25.92,19.86c3.07-3.75,6.14-7.5,9.2-11.25c0.27-0.33,0.34-0.72,0.21-1.18
			c-0.13-0.46-0.79-1.25-1.99-2.38c0.23-0.28,0.46-0.57,0.69-0.85c6.95,5.6,13.78,11.39,20.48,17.36c-0.24,0.27-0.49,0.55-0.73,0.82
			c-1.32-1.01-2.21-1.54-2.69-1.59c-0.47-0.05-0.85,0.08-1.13,0.4C1006.51,250.39,997.15,261.06,987.78,271.74z"/>
		<path d="M1062.2,280.81c3.82,4.22,6.96,8.64,9.42,13.17c2.46,4.54,4.08,8.96,4.86,13.22c0.78,4.26,0.65,8.22-0.37,11.85
			c-1.02,3.64-3.13,6.69-6.29,9.17c-3.16,2.49-6.59,3.82-10.27,4.05c-3.68,0.23-7.43-0.39-11.25-1.82
			c-3.82-1.43-7.58-3.6-11.32-6.49c-3.74-2.89-7.34-6.27-10.83-10.13c-3.49-3.86-6.46-7.76-8.93-11.75
			c-2.47-3.99-4.21-7.91-5.21-11.83c-1-3.92-1.21-7.68-0.59-11.31c0.62-3.63,2.28-6.92,5.05-9.85c2.76-2.93,5.95-4.77,9.6-5.49
			c3.65-0.72,7.52-0.53,11.6,0.6c4.08,1.13,8.25,3.11,12.46,5.97C1054.35,273.04,1058.39,276.58,1062.2,280.81z M1053.98,288.34
			c-1.93-2.14-4-3.93-6.18-5.39c-2.19-1.46-4.36-2.49-6.51-3.11c-2.15-0.62-4.23-0.75-6.23-0.4c-2,0.35-3.75,1.28-5.27,2.78
			c-1.52,1.5-2.47,3.25-2.88,5.23c-0.41,1.99-0.37,4.04,0.12,6.18c0.48,2.14,1.34,4.3,2.56,6.51c1.22,2.21,2.75,4.32,4.59,6.35
			c1.84,2.03,3.79,3.77,5.86,5.22c2.08,1.45,4.15,2.52,6.23,3.22c2.08,0.7,4.12,0.95,6.13,0.74c2.01-0.21,3.83-0.99,5.46-2.37
			c1.62-1.38,2.71-3.06,3.23-5.04c0.52-1.98,0.58-4.09,0.15-6.33c-0.42-2.23-1.25-4.53-2.5-6.87
			C1057.5,292.72,1055.91,290.48,1053.98,288.34z"/>
		<path d="M1121.24,359.31c3.14,5.05,5.58,10.17,7.33,15.29c1.74,5.12,2.66,9.95,2.77,14.45c0.11,4.5-0.64,8.51-2.23,12.02
			c-1.59,3.5-4.17,6.18-7.7,8.07c-3.54,1.89-7.17,2.54-10.87,2.02c-3.71-0.52-7.35-1.92-10.93-4.16c-3.59-2.24-7-5.22-10.27-8.92
			c-3.28-3.7-6.33-7.86-9.2-12.48c-2.87-4.62-5.22-9.16-7.06-13.69c-1.84-4.53-2.95-8.84-3.33-12.99c-0.38-4.16,0-7.99,1.2-11.54
			c1.19-3.54,3.37-6.54,6.58-8.95c3.21-2.41,6.68-3.66,10.43-3.67c3.75-0.01,7.58,0.93,11.46,2.88c3.89,1.95,7.73,4.77,11.48,8.5
			C1114.63,349.86,1118.1,354.26,1121.24,359.31z M1111.86,365.31c-1.59-2.55-3.36-4.79-5.32-6.7c-1.95-1.91-3.96-3.39-6-4.44
			c-2.05-1.05-4.1-1.6-6.14-1.64c-2.05-0.04-3.94,0.55-5.69,1.77c-1.75,1.22-2.97,2.8-3.69,4.72c-0.72,1.93-1,4.02-0.86,6.28
			c0.14,2.26,0.65,4.62,1.53,7.1c0.87,2.48,2.06,4.93,3.58,7.36c1.51,2.43,3.18,4.59,5.03,6.48c1.84,1.89,3.74,3.4,5.7,4.54
			c1.96,1.13,3.96,1.8,6,2c2.04,0.2,3.97-0.23,5.81-1.3c1.84-1.07,3.18-2.56,4.01-4.47c0.83-1.91,1.22-4.05,1.15-6.41
			c-0.07-2.35-0.54-4.86-1.41-7.49C1114.68,370.46,1113.45,367.86,1111.86,365.31z"/>
		<path d="M1144.88,497.79c0.24,0.72,0.58,1.21,1.01,1.46c0.43,0.26,1.17,0.31,2.21,0.17c0.18,0.54,0.36,1.09,0.53,1.63
			c-4.99,1.62-9.98,3.24-14.97,4.86c-0.17-0.53-0.34-1.06-0.52-1.58c0.86-0.48,1.34-0.93,1.42-1.35c0.09-0.42,0.01-0.98-0.22-1.69
			c-7.65-22.97-16.5-44.83-26.45-65.57c0.33-0.16,0.65-0.32,0.98-0.48c0.83,1.46,1.46,2.31,1.87,2.55c0.42,0.24,0.81,0.27,1.2,0.08
			c12.73-6.17,25.46-12.34,38.19-18.52c0.38-0.18,0.6-0.53,0.67-1.04c0.06-0.51-0.25-1.62-0.93-3.32c0.33-0.16,0.65-0.32,0.98-0.48
			c4.29,8.94,8.39,18.07,12.3,27.39c-0.33,0.14-0.67,0.29-1,0.43c-0.83-1.67-1.46-2.64-1.88-2.94c-0.42-0.3-0.83-0.36-1.22-0.19
			c-10.4,4.55-20.79,9.11-31.19,13.66C1134.05,467.36,1139.74,482.32,1144.88,497.79z"/>
	</g>
</g>
<rect x="-186.58" y="24.43" class="st2" width="116.98" height="156.6"/>
<g>
	<g>
		<path d="M301.14,906.22c-0.44,0.15-1.06,0.58-1.86,1.29c-0.53,0.48-0.55,1.66-0.03,3.56c0.51,1.89,1.43,4.14,2.77,6.71
			c1.33,2.58,3.06,5.35,5.18,8.3c2.12,2.95,4.51,5.72,7.13,8.3c5.05,4.95,9.27,8,12.51,9.29c3.25,1.28,5.66,1.01,7.22-0.74
			c0.86-0.96,0.42-2.57-1.28-4.85c-1.7-2.28-3.98-4.98-6.8-8.13c-2.83-3.15-5.82-6.6-8.97-10.36c-3.15-3.76-5.78-7.57-7.91-11.39
			c-2.13-3.82-3.38-7.46-3.77-10.86c-0.39-3.41,0.74-6.22,3.32-8.47c2.05-1.78,4.42-2.79,7.11-3.08c2.69-0.29,5.53,0.08,8.54,1.07
			c3.01,0.99,6.15,2.6,9.47,4.8c3.31,2.2,6.61,4.96,9.93,8.27c3.08,3.07,5.83,6.03,8.23,8.93c2.4,2.9,4.5,5.51,6.27,7.86
			c1.76,2.35,3.24,4.33,4.42,5.96c1.17,1.63,2.09,2.71,2.73,3.26c0.65,0.55,1.27,0.86,1.86,0.94c0.6,0.08,1.19,0.09,1.79,0.03
			c0.26,0.41,0.53,0.81,0.8,1.22c-5.4,1.97-10.86,3.84-16.38,5.62c-0.26-0.51-0.52-1.01-0.77-1.52c0.26-0.3,0.51-0.59,0.77-0.89
			c0.42-0.49,0.21-1.54-0.62-3.17c-0.83-1.63-2.03-3.52-3.6-5.67c-1.57-2.15-3.41-4.45-5.51-6.93c-2.1-2.47-4.23-4.78-6.4-6.93
			c-4.04-3.99-7.19-6.5-9.55-7.41c-2.36-0.92-3.98-0.98-4.86-0.14c-0.88,0.83-0.99,2.05-0.32,3.63c0.67,1.59,1.81,3.42,3.43,5.47
			c1.61,2.05,3.53,4.31,5.77,6.75c2.23,2.44,4.49,4.98,6.79,7.61c2.29,2.63,4.45,5.28,6.47,7.95c2.02,2.67,3.61,5.31,4.76,7.94
			c1.15,2.63,1.7,5.24,1.64,7.84c-0.06,2.6-1.05,5.09-2.99,7.46c-1.49,1.82-3.44,3.22-5.86,4.18c-2.42,0.96-5.38,1.16-8.89,0.55
			c-3.51-0.61-7.57-2.22-12.16-4.91c-4.58-2.69-9.74-6.73-15.34-12.21c-4.36-4.26-7.89-8.19-10.65-11.68
			c-2.75-3.5-4.95-6.62-6.6-9.34c-1.66-2.72-2.89-4.92-3.71-6.61c-0.83-1.68-1.52-2.86-2.09-3.52c-0.38-0.44-0.83-0.73-1.33-0.88
			c-0.5-0.15-1.05-0.29-1.64-0.43c-0.3-0.52-0.6-1.03-0.91-1.55c7.19-1.36,14.3-2.87,21.34-4.52
			C300.78,905.28,300.96,905.75,301.14,906.22z"/>
		<path d="M427.99,969.21c0.25-0.43,0.29-0.88,0.13-1.34c-0.16-0.46-0.88-1.14-2.15-2.06c0.22-0.37,0.43-0.74,0.65-1.11
			c7.27,4.26,14.63,8.29,22.09,12.07c-0.19,0.38-0.39,0.76-0.58,1.15c-1.45-0.57-2.4-0.81-2.88-0.69c-0.47,0.12-0.83,0.4-1.06,0.84
			c-4.4,8.49-8.8,16.98-13.2,25.47c-2.17,4.18-4.83,7.27-8.04,9.21c-3.21,1.94-6.78,2.95-10.71,2.99
			c-3.93,0.04-8.13-0.78-12.55-2.48c-4.42-1.71-8.89-3.96-13.39-6.78c-4.5-2.82-8.51-5.88-12-9.13c-3.5-3.25-6.11-6.7-7.84-10.29
			c-1.73-3.59-2.42-7.28-2.11-11.04c0.31-3.76,1.91-7.52,4.72-11.29c5.71-7.67,11.42-15.34,17.13-23.01c0.3-0.4,0.39-0.84,0.28-1.32
			c-0.11-0.48-0.76-1.26-1.93-2.33c0.26-0.34,0.52-0.68,0.78-1.02c6.82,5.19,13.77,10.14,20.83,14.85
			c-0.24,0.36-0.47,0.71-0.71,1.07c-1.39-0.75-2.32-1.11-2.81-1.05c-0.49,0.06-0.87,0.29-1.15,0.7
			c-5.36,7.92-10.73,15.83-16.09,23.75c-2.32,3.43-2.77,6.71-1.27,9.85c1.5,3.14,4.55,6.21,9.16,9.1c4.61,2.88,8.68,4.27,12.14,4.24
			c3.46-0.04,6.2-1.88,8.27-5.47C418.46,985.79,423.23,977.5,427.99,969.21z"/>
		<path d="M467.56,1043.25c-0.18,0.47-0.14,0.92,0.13,1.37c0.27,0.45,1.18,1.05,2.75,1.79c-0.15,0.4-0.3,0.8-0.46,1.2
			c-8.79-3.32-17.5-6.92-26.11-10.78c0.18-0.39,0.35-0.78,0.53-1.17c1.64,0.58,2.72,0.8,3.23,0.67c0.51-0.13,0.86-0.42,1.06-0.88
			c6.69-15.22,13.38-30.45,20.07-45.67c0.2-0.46,0.2-0.91-0.01-1.35c-0.21-0.44-0.99-1.04-2.33-1.8c0.18-0.39,0.35-0.78,0.53-1.17
			c13.5,6.05,27.26,11.35,41.21,15.91c8.46,2.76,14.23,5.89,17.36,9.75c3.12,3.85,3.98,8.69,2.44,14.56
			c-1.25,4.76-3.87,8.07-7.96,9.84c-4.08,1.77-8.9,2.49-14.41,2.08c3.17,7.16,6.54,14.29,10.13,21.38c0.71,1.52,1.81,2.48,3.3,2.86
			c-0.11,0.41-0.22,0.83-0.32,1.24c-9.12-2.37-18.19-5.01-27.19-7.93c0.13-0.41,0.27-0.81,0.4-1.22c1.92,0.55,3.07,0.23,3.43-0.92
			c0.04-0.14-0.15-0.72-0.57-1.76c-0.43-1.04-0.96-2.29-1.6-3.78c-0.64-1.49-1.36-3.09-2.13-4.82c-0.78-1.73-1.52-3.39-2.22-4.99
			c-0.7-1.6-1.3-3.02-1.79-4.25c-0.49-1.23-0.8-2.06-0.92-2.48c-4.02-1.43-8.02-2.91-12.01-4.46
			C471.9,1032.08,469.73,1037.67,467.56,1043.25z M498.32,1023.16c3.54,1.18,6.17,1.39,7.85,0.68c1.68-0.71,2.75-1.82,3.21-3.32
			c0.46-1.5,0.21-3.01-0.74-4.54c-0.95-1.53-3.15-2.84-6.59-3.99c-6.58-2.19-13.11-4.54-19.6-7.05c-1.42,3.66-2.84,7.32-4.27,10.97
			C484.85,1018.5,491.56,1020.91,498.32,1023.16z"/>
		<path d="M610.97,1036.89c-0.1-1.01-0.3-1.7-0.61-2.08c-0.3-0.38-0.78-0.59-1.44-0.63c-13.49-0.93-26.95-2.5-40.33-4.69
			c-0.52,3.13-1.03,6.26-1.55,9.4c9.2,1.51,18.43,2.72,27.69,3.65c0.67,0.07,1.18-0.04,1.55-0.33c0.36-0.29,0.68-0.92,0.94-1.9
			c0.5,0.05,1,0.09,1.49,0.14c-0.55,5.97-1.1,11.93-1.65,17.9c-0.52-0.05-1.04-0.1-1.55-0.14c-0.06-1.22-0.24-2.03-0.55-2.42
			c-0.31-0.39-0.81-0.62-1.49-0.68c-9.52-0.95-19.02-2.2-28.48-3.75c-0.97,5.88-1.94,11.76-2.91,17.63
			c-0.08,0.49,0.05,0.93,0.4,1.31c0.35,0.38,1.35,0.78,3.02,1.18c-0.07,0.42-0.13,0.85-0.2,1.27c-9.37-1.46-18.7-3.19-27.99-5.21
			c0.09-0.42,0.18-0.84,0.27-1.25c1.7,0.22,2.79,0.21,3.25-0.02c0.46-0.23,0.75-0.59,0.85-1.08c3.42-16.27,6.84-32.54,10.27-48.8
			c0.1-0.49,0.01-0.93-0.28-1.32c-0.29-0.39-1.16-0.81-2.62-1.27c0.09-0.42,0.18-0.84,0.27-1.25c19.96,4.34,40.19,7.21,60.49,8.61
			c0.63,0.04,1.12-0.12,1.47-0.49c0.34-0.37,0.63-1.16,0.87-2.36c0.47,0.03,0.95,0.06,1.42,0.09c-0.38,6.19-0.76,12.39-1.14,18.58
			C611.96,1036.95,611.46,1036.92,610.97,1036.89z"/>
		<path d="M725.24,1033.75c0.04-0.23,0.06-0.46,0.05-0.72c-0.01-0.25-0.05-0.55-0.12-0.9c-0.11-0.56-0.77-1.01-1.98-1.36
			c-1.21-0.35-2.77-0.57-4.68-0.69c-1.91-0.12-4.07-0.13-6.48-0.05c-2.41,0.08-4.91,0.32-7.51,0.71c-2.44,0.37-4.96,0.98-7.59,1.84
			c-2.63,0.85-5,1.97-7.12,3.37c-2.13,1.39-3.82,3.1-5.08,5.13c-1.26,2.03-1.77,4.39-1.5,7.09c0.27,2.7,1.23,4.92,2.93,6.64
			c1.69,1.73,3.8,3.03,6.31,3.88c2.51,0.86,5.24,1.35,8.17,1.46c2.93,0.11,5.7-0.03,8.31-0.42c1.13-0.17,2.88-0.6,5.25-1.31
			c2.37-0.71,4.71-1.56,7.02-2.56c2.31-0.99,4.31-2.02,6.02-3.08c1.7-1.06,2.47-1.98,2.31-2.75c-0.07-0.35-0.21-0.61-0.42-0.79
			c-0.21-0.18-0.43-0.39-0.66-0.63c0.42-0.34,0.83-0.68,1.25-1.01c5.47,4.61,11.09,9.12,16.86,13.53c-0.47,0.36-0.93,0.73-1.4,1.09
			c-0.26-0.31-0.55-0.48-0.88-0.51c-0.33-0.03-0.71,0-1.15,0.1c-0.61,0.14-1.77,0.71-3.48,1.7c-1.71,0.99-3.97,2.13-6.79,3.38
			c-2.82,1.26-6.18,2.52-10.09,3.75c-3.91,1.24-8.37,2.25-13.38,2.99c-5.36,0.79-10.77,0.94-16.17,0.44
			c-5.4-0.5-10.31-1.79-14.67-3.82c-4.37-2.03-7.92-4.8-10.67-8.24c-2.75-3.44-4.21-7.56-4.47-12.33c-0.26-4.77,0.74-9.02,2.9-12.76
			c2.16-3.74,5.04-6.94,8.62-9.64c3.58-2.7,7.63-4.89,12.17-6.63c4.54-1.74,9.14-2.95,13.86-3.64c4.72-0.7,8.82-1.15,12.31-1.3
			c3.5-0.15,6.48-0.2,8.94-0.11c2.39,0.11,4.26,0.21,5.6,0.32c1.34,0.12,2.33,0.1,2.96-0.04c0.71-0.16,1.24-0.56,1.58-1.23
			c0.46,0.01,0.91,0.01,1.37,0.02c-2.21,6.54-4.58,13.07-7.11,19.58C726.16,1034.08,725.7,1033.91,725.24,1033.75z"/>
		<path d="M826.39,1026.12c0.65-0.29,1.06-0.68,1.23-1.19c0.16-0.5,0.08-1.34-0.25-2.52c0.49-0.22,0.97-0.43,1.45-0.65
			c2.54,5.63,5.08,11.25,7.63,16.88c-0.5,0.23-1.01,0.45-1.51,0.68c-0.64-0.97-1.17-1.49-1.61-1.57c-0.44-0.08-0.99,0.03-1.66,0.33
			c-21.88,9.64-44.35,17.56-67.2,23.74c-0.11-0.41-0.23-0.83-0.34-1.24c1.62-0.59,2.58-1.1,2.89-1.51c0.31-0.42,0.39-0.87,0.25-1.35
			c-4.5-16.01-9-32.01-13.5-48.01c-0.13-0.48-0.42-0.83-0.86-1.04c-0.44-0.21-1.41-0.18-2.92,0.08c-0.11-0.41-0.23-0.83-0.34-1.24
			c7.95-2.15,15.85-4.54,23.69-7.17c0.14,0.41,0.27,0.81,0.41,1.22c-1.4,0.62-2.23,1.14-2.48,1.55c-0.24,0.42-0.29,0.86-0.13,1.34
			c4.16,12.68,8.32,25.36,12.48,38.04C798.09,1037.75,812.37,1032.3,826.39,1026.12z"/>
		<path d="M872.75,955.33c-0.27-0.42-0.66-0.66-1.15-0.72c-0.49-0.06-1.43,0.28-2.82,1.02c-0.23-0.36-0.47-0.72-0.7-1.08
			c7.1-4.62,14.1-9.48,20.97-14.58c0.25,0.34,0.51,0.69,0.76,1.03c-1.19,1.06-1.84,1.82-1.95,2.3c-0.11,0.48-0.02,0.92,0.27,1.33
			c5.62,7.74,11.24,15.47,16.86,23.21c2.77,3.81,4.32,7.58,4.59,11.34c0.27,3.76-0.46,7.44-2.23,11c-1.76,3.57-4.41,6.98-7.94,10.19
			c-3.53,3.21-7.56,6.21-12.09,8.97c-4.53,2.76-9.02,4.96-13.45,6.61c-4.43,1.65-8.63,2.42-12.56,2.33
			c-3.93-0.09-7.49-1.14-10.67-3.12c-3.18-1.98-5.81-5.1-7.93-9.3c-4.3-8.54-8.61-17.08-12.91-25.62c-0.22-0.44-0.57-0.73-1.05-0.85
			c-0.47-0.12-1.43,0.1-2.88,0.66c-0.19-0.38-0.38-0.77-0.57-1.15c7.49-3.7,14.9-7.63,22.2-11.8c0.21,0.37,0.42,0.74,0.64,1.12
			c-1.28,0.9-2.01,1.57-2.17,2.03c-0.16,0.46-0.12,0.91,0.12,1.34c4.67,8.34,9.34,16.69,14.02,25.03c2.02,3.61,4.74,5.49,8.2,5.57
			c3.45,0.08,7.54-1.26,12.17-4.09c4.63-2.83,7.72-5.86,9.24-8.98c1.53-3.12,1.12-6.41-1.16-9.86
			C883.3,971.28,878.03,963.3,872.75,955.33z"/>
		<path d="M909.8,927.73c-0.32-0.38-0.73-0.58-1.22-0.58c-0.5,0-1.41,0.45-2.73,1.35c-0.27-0.33-0.54-0.66-0.81-0.99
			c12.34-10.12,24.22-21.04,35.59-32.78c2.45-2.53,4.86-4.68,7.28-6.44c2.41-1.77,4.78-3.08,7.11-3.92
			c2.33-0.84,4.61-1.12,6.85-0.81c2.24,0.31,4.36,1.31,6.36,3.04c2.43,2.1,3.59,4.72,3.43,7.87c-0.16,3.15-1.3,6.39-3.43,9.67
			c0.05,0.05,0.1,0.1,0.16,0.14c3.9-2.78,7.6-4.65,11.16-5.58c3.55-0.93,6.85-0.14,9.89,2.46c1.63,1.39,2.82,3.13,3.55,5.23
			c0.73,2.1,0.86,4.52,0.35,7.26c-0.51,2.74-1.7,5.8-3.6,9.15c-1.9,3.35-4.64,6.92-8.22,10.63c-13.04,13.51-26.69,26.08-40.86,37.7
			c-0.27-0.33-0.54-0.66-0.81-0.99c1.3-1.25,2.01-2.14,2.13-2.66c0.12-0.52,0.02-0.97-0.3-1.36
			C931.05,953.3,920.42,940.51,909.8,927.73z M949.47,915.9c2.04-2.02,3.67-3.76,4.92-5.18c1.24-1.43,2.11-2.66,2.6-3.69
			c0.49-1.03,0.65-1.93,0.5-2.7c-0.16-0.77-0.63-1.52-1.4-2.25c-0.78-0.74-1.55-1.16-2.32-1.28c-0.77-0.12-1.65,0.08-2.64,0.6
			c-0.99,0.52-2.17,1.41-3.53,2.66c-1.37,1.25-3.04,2.87-5.03,4.84c-4.23,4.2-8.53,8.29-12.9,12.28c2.21,2.43,4.42,4.85,6.63,7.28
			C940.75,924.38,945.15,920.2,949.47,915.9z M969.58,929.38c3.59-3.64,5.74-6.6,6.47-8.78c0.73-2.18,0.23-4.08-1.49-5.68
			c-1.72-1.61-3.64-1.98-5.74-1.16c-2.1,0.83-4.87,3.04-8.36,6.58c-5.5,5.57-11.11,10.97-16.83,16.19c2.88,3.17,5.76,6.33,8.64,9.5
			C958.15,940.66,963.93,935.11,969.58,929.38z"/>
	</g>
</g>
<rect x="694.55" y="775.64" class="st2" width="126.42" height="56.34"/>
</svg>
